<svg width="24" height="24" viewBox="0 0 24 24" fill="none" xmlns="http://www.w3.org/2000/svg">
<path fill-rule="evenodd" clip-rule="evenodd" d="M9.14529 15.784C13.537 15.784 17.2906 16.4494 17.2906 19.1078C17.2906 21.7661 13.562 22.4507 9.14529 22.4507C4.7524 22.4507 1 21.7911 1 19.1316C1 16.4721 4.7274 15.784 9.14529 15.784Z" stroke="#F2CB92" stroke-width="2" stroke-linecap="round" stroke-linejoin="round"/>
<path fill-rule="evenodd" clip-rule="evenodd" d="M9.14529 11.9899C6.26194 11.9899 3.92383 9.65297 3.92383 6.76962C3.92383 3.88627 6.26194 1.54935 9.14529 1.54935C12.0274 1.54935 14.3656 3.88627 14.3656 6.76962C14.3763 9.64226 12.0548 11.9792 9.18219 11.9899H9.14529Z" stroke="#F2CB92" stroke-width="2" stroke-linecap="round" stroke-linejoin="round"/>
<path d="M17.3496 10.6349C19.2556 10.367 20.7234 8.73129 20.727 6.75152C20.727 4.80032 19.3044 3.18126 17.4389 2.87531" stroke="#F2CB92" stroke-width="2" stroke-linecap="round" stroke-linejoin="round"/>
<path d="M19.8643 15.219C21.7107 15.494 23 16.1416 23 17.4749C23 18.3928 22.3928 18.988 21.4119 19.3607" stroke="#F2CB92" stroke-width="2" stroke-linecap="round" stroke-linejoin="round"/>
</svg>
