<svg width="26" height="26" viewBox="0 0 26 26" fill="none" xmlns="http://www.w3.org/2000/svg">
<path fill-rule="evenodd" clip-rule="evenodd" d="M21.4856 21.4838C17.8183 25.1516 12.3877 25.944 7.9437 23.8888C7.28765 23.6247 6.74978 23.4112 6.23845 23.4112C4.81419 23.4196 3.0414 24.8006 2.12003 23.8804C1.19866 22.9589 2.58072 21.1847 2.58072 19.7519C2.58072 19.2405 2.3757 18.7122 2.11159 18.0549C0.0553968 13.6115 0.848931 8.17923 4.51631 4.51265C9.19792 -0.170682 16.804 -0.170681 21.4856 4.51144C26.1757 9.20201 26.1672 16.8017 21.4856 21.4838Z" stroke="#F2CB92" stroke-width="2" stroke-linecap="round" stroke-linejoin="round"/>
<path d="M17.7273 13.4956H17.7381" stroke="#F2CB92" stroke-width="2" stroke-linecap="round" stroke-linejoin="round"/>
<path d="M12.9164 13.4956H12.9272" stroke="#F2CB92" stroke-width="2" stroke-linecap="round" stroke-linejoin="round"/>
<path d="M8.10571 13.4956H8.11651" stroke="#F2CB92" stroke-width="2" stroke-linecap="round" stroke-linejoin="round"/>
</svg>
